<?xml version="1.0" standalone="no"?>
<!DOCTYPE svg PUBLIC "-//W3C//DTD SVG 20010904//EN"
 "http://www.w3.org/TR/2001/REC-SVG-20010904/DTD/svg10.dtd">
<svg version="1.0" xmlns="http://www.w3.org/2000/svg"
 width="700.000000pt" height="700.000000pt" viewBox="0 0 700.000000 700.000000"
 preserveAspectRatio="xMidYMid meet">
<metadata>
Created by potrace 1.11, written by Peter Selinger 2001-2013
</metadata>
<g transform="translate(0.000000,700.000000) scale(0.100000,-0.100000)"
fill="#000000" stroke="none">
<path d="M3280 6994 c-19 -2 -84 -9 -145 -14 -1220 -116 -2330 -923 -2835
-2064 -302 -682 -378 -1453 -214 -2184 112 -503 359 -1014 690 -1427 114 -142
388 -417 529 -529 536 -426 1138 -676 1830 -758 144 -17 586 -17 730 0 692 82
1294 332 1830 758 141 113 416 388 529 529 619 777 882 1749 736 2718 -205
1354 -1192 2473 -2510 2845 -179 51 -340 83 -540 108 -110 14 -556 27 -630 18z
m650 -403 c491 -72 930 -241 1320 -509 1010 -691 1522 -1879 1329 -3082 -170
-1061 -892 -1972 -1893 -2385 -700 -288 -1495 -312 -2203 -64 -323 114 -581
251 -858 459 -929 697 -1393 1852 -1204 2998 156 943 733 1758 1578 2228 339
188 764 324 1141 363 58 6 121 13 140 15 97 11 522 -4 650 -23z"/>
<path d="M2272 4629 c-195 -26 -339 -212 -318 -413 13 -125 102 -248 219 -302
55 -26 73 -29 157 -29 88 0 101 3 162 33 83 41 158 120 189 200 34 87 33 208
-4 285 -36 78 -77 128 -136 166 -84 54 -170 73 -269 60z"/>
<path d="M4612 4629 c-119 -16 -230 -100 -285 -217 -28 -59 -32 -77 -31 -152
1 -155 75 -275 212 -342 61 -30 74 -33 162 -33 84 0 102 3 157 29 77 35 153
113 191 193 23 49 27 72 27 148 0 80 -4 97 -31 155 -37 79 -82 132 -139 166
-83 48 -169 66 -263 53z"/>
<path d="M1220 3681 l0 -189 55 -7 c219 -27 363 -256 297 -471 -45 -145 -148
-230 -314 -259 l-38 -6 0 -190 0 -189 58 6 c232 25 427 136 558 320 l45 62 87
-65 c666 -497 1545 -634 2350 -368 231 77 519 229 716 377 67 51 81 57 88 43
5 -8 31 -44 57 -78 119 -155 327 -270 529 -291 l52 -5 0 189 0 190 -27 5
c-113 23 -165 48 -224 108 -120 119 -145 282 -68 428 55 103 159 176 279 195
l40 7 0 188 0 189 -30 0 c-53 0 -182 -30 -250 -59 -228 -95 -405 -316 -450
-563 -11 -63 -15 -68 -73 -120 -348 -306 -760 -490 -1214 -543 -600 -70 -1203
114 -1669 509 l-102 86 -12 67 c-43 249 -226 471 -470 570 -63 25 -190 53
-241 53 l-29 0 0 -189z"/>
</g>
</svg>
